<?xml version="1.0" standalone="no"?>
<svg xmlns="http://www.w3.org/2000/svg" version="1.1" width="986" height="986">
	<!-- Created with https://api.qrserver.com (QR Code API, see goQR.me/api for information) -->
	<title>QR Code</title>
	<desc>https://kevin080410.github.io/kevin/</desc>
	<rect style="fill:rgb(255, 255, 255);fill-opacity:1" x="0" y="0" width="986" height="986" />
	<g id="elements">
		<path style="fill:rgb(0, 0, 0)" d="M 0,0 l 34,0 0,34 -34,0 z M 34,0 l 34,0 0,34 -34,0 z M 68,0 l 34,0 0,34 -34,0 z M 102,0 l 34,0 0,34 -34,0 z M 136,0 l 34,0 0,34 -34,0 z M 170,0 l 34,0 0,34 -34,0 z M 204,0 l 34,0 0,34 -34,0 z M 306,0 l 34,0 0,34 -34,0 z M 612,0 l 34,0 0,34 -34,0 z M 680,0 l 34,0 0,34 -34,0 z M 748,0 l 34,0 0,34 -34,0 z M 782,0 l 34,0 0,34 -34,0 z M 816,0 l 34,0 0,34 -34,0 z M 850,0 l 34,0 0,34 -34,0 z M 884,0 l 34,0 0,34 -34,0 z M 918,0 l 34,0 0,34 -34,0 z M 952,0 l 34,0 0,34 -34,0 z M 0,34 l 34,0 0,34 -34,0 z M 204,34 l 34,0 0,34 -34,0 z M 272,34 l 34,0 0,34 -34,0 z M 306,34 l 34,0 0,34 -34,0 z M 374,34 l 34,0 0,34 -34,0 z M 408,34 l 34,0 0,34 -34,0 z M 476,34 l 34,0 0,34 -34,0 z M 544,34 l 34,0 0,34 -34,0 z M 612,34 l 34,0 0,34 -34,0 z M 748,34 l 34,0 0,34 -34,0 z M 952,34 l 34,0 0,34 -34,0 z M 0,68 l 34,0 0,34 -34,0 z M 68,68 l 34,0 0,34 -34,0 z M 102,68 l 34,0 0,34 -34,0 z M 136,68 l 34,0 0,34 -34,0 z M 204,68 l 34,0 0,34 -34,0 z M 306,68 l 34,0 0,34 -34,0 z M 340,68 l 34,0 0,34 -34,0 z M 374,68 l 34,0 0,34 -34,0 z M 442,68 l 34,0 0,34 -34,0 z M 476,68 l 34,0 0,34 -34,0 z M 510,68 l 34,0 0,34 -34,0 z M 578,68 l 34,0 0,34 -34,0 z M 748,68 l 34,0 0,34 -34,0 z M 816,68 l 34,0 0,34 -34,0 z M 850,68 l 34,0 0,34 -34,0 z M 884,68 l 34,0 0,34 -34,0 z M 952,68 l 34,0 0,34 -34,0 z M 0,102 l 34,0 0,34 -34,0 z M 68,102 l 34,0 0,34 -34,0 z M 102,102 l 34,0 0,34 -34,0 z M 136,102 l 34,0 0,34 -34,0 z M 204,102 l 34,0 0,34 -34,0 z M 272,102 l 34,0 0,34 -34,0 z M 306,102 l 34,0 0,34 -34,0 z M 374,102 l 34,0 0,34 -34,0 z M 442,102 l 34,0 0,34 -34,0 z M 544,102 l 34,0 0,34 -34,0 z M 612,102 l 34,0 0,34 -34,0 z M 680,102 l 34,0 0,34 -34,0 z M 748,102 l 34,0 0,34 -34,0 z M 816,102 l 34,0 0,34 -34,0 z M 850,102 l 34,0 0,34 -34,0 z M 884,102 l 34,0 0,34 -34,0 z M 952,102 l 34,0 0,34 -34,0 z M 0,136 l 34,0 0,34 -34,0 z M 68,136 l 34,0 0,34 -34,0 z M 102,136 l 34,0 0,34 -34,0 z M 136,136 l 34,0 0,34 -34,0 z M 204,136 l 34,0 0,34 -34,0 z M 340,136 l 34,0 0,34 -34,0 z M 408,136 l 34,0 0,34 -34,0 z M 442,136 l 34,0 0,34 -34,0 z M 476,136 l 34,0 0,34 -34,0 z M 510,136 l 34,0 0,34 -34,0 z M 544,136 l 34,0 0,34 -34,0 z M 578,136 l 34,0 0,34 -34,0 z M 748,136 l 34,0 0,34 -34,0 z M 816,136 l 34,0 0,34 -34,0 z M 850,136 l 34,0 0,34 -34,0 z M 884,136 l 34,0 0,34 -34,0 z M 952,136 l 34,0 0,34 -34,0 z M 0,170 l 34,0 0,34 -34,0 z M 204,170 l 34,0 0,34 -34,0 z M 272,170 l 34,0 0,34 -34,0 z M 340,170 l 34,0 0,34 -34,0 z M 544,170 l 34,0 0,34 -34,0 z M 646,170 l 34,0 0,34 -34,0 z M 748,170 l 34,0 0,34 -34,0 z M 952,170 l 34,0 0,34 -34,0 z M 0,204 l 34,0 0,34 -34,0 z M 34,204 l 34,0 0,34 -34,0 z M 68,204 l 34,0 0,34 -34,0 z M 102,204 l 34,0 0,34 -34,0 z M 136,204 l 34,0 0,34 -34,0 z M 170,204 l 34,0 0,34 -34,0 z M 204,204 l 34,0 0,34 -34,0 z M 272,204 l 34,0 0,34 -34,0 z M 340,204 l 34,0 0,34 -34,0 z M 408,204 l 34,0 0,34 -34,0 z M 476,204 l 34,0 0,34 -34,0 z M 544,204 l 34,0 0,34 -34,0 z M 612,204 l 34,0 0,34 -34,0 z M 680,204 l 34,0 0,34 -34,0 z M 748,204 l 34,0 0,34 -34,0 z M 782,204 l 34,0 0,34 -34,0 z M 816,204 l 34,0 0,34 -34,0 z M 850,204 l 34,0 0,34 -34,0 z M 884,204 l 34,0 0,34 -34,0 z M 918,204 l 34,0 0,34 -34,0 z M 952,204 l 34,0 0,34 -34,0 z M 408,238 l 34,0 0,34 -34,0 z M 442,238 l 34,0 0,34 -34,0 z M 510,238 l 34,0 0,34 -34,0 z M 544,238 l 34,0 0,34 -34,0 z M 578,238 l 34,0 0,34 -34,0 z M 646,238 l 34,0 0,34 -34,0 z M 0,272 l 34,0 0,34 -34,0 z M 34,272 l 34,0 0,34 -34,0 z M 68,272 l 34,0 0,34 -34,0 z M 102,272 l 34,0 0,34 -34,0 z M 136,272 l 34,0 0,34 -34,0 z M 204,272 l 34,0 0,34 -34,0 z M 238,272 l 34,0 0,34 -34,0 z M 272,272 l 34,0 0,34 -34,0 z M 306,272 l 34,0 0,34 -34,0 z M 340,272 l 34,0 0,34 -34,0 z M 408,272 l 34,0 0,34 -34,0 z M 442,272 l 34,0 0,34 -34,0 z M 510,272 l 34,0 0,34 -34,0 z M 544,272 l 34,0 0,34 -34,0 z M 578,272 l 34,0 0,34 -34,0 z M 612,272 l 34,0 0,34 -34,0 z M 646,272 l 34,0 0,34 -34,0 z M 714,272 l 34,0 0,34 -34,0 z M 782,272 l 34,0 0,34 -34,0 z M 850,272 l 34,0 0,34 -34,0 z M 918,272 l 34,0 0,34 -34,0 z M 0,306 l 34,0 0,34 -34,0 z M 136,306 l 34,0 0,34 -34,0 z M 306,306 l 34,0 0,34 -34,0 z M 442,306 l 34,0 0,34 -34,0 z M 476,306 l 34,0 0,34 -34,0 z M 510,306 l 34,0 0,34 -34,0 z M 612,306 l 34,0 0,34 -34,0 z M 714,306 l 34,0 0,34 -34,0 z M 748,306 l 34,0 0,34 -34,0 z M 782,306 l 34,0 0,34 -34,0 z M 816,306 l 34,0 0,34 -34,0 z M 952,306 l 34,0 0,34 -34,0 z M 0,340 l 34,0 0,34 -34,0 z M 102,340 l 34,0 0,34 -34,0 z M 204,340 l 34,0 0,34 -34,0 z M 306,340 l 34,0 0,34 -34,0 z M 374,340 l 34,0 0,34 -34,0 z M 408,340 l 34,0 0,34 -34,0 z M 476,340 l 34,0 0,34 -34,0 z M 544,340 l 34,0 0,34 -34,0 z M 748,340 l 34,0 0,34 -34,0 z M 782,340 l 34,0 0,34 -34,0 z M 816,340 l 34,0 0,34 -34,0 z M 0,374 l 34,0 0,34 -34,0 z M 34,374 l 34,0 0,34 -34,0 z M 68,374 l 34,0 0,34 -34,0 z M 102,374 l 34,0 0,34 -34,0 z M 136,374 l 34,0 0,34 -34,0 z M 170,374 l 34,0 0,34 -34,0 z M 306,374 l 34,0 0,34 -34,0 z M 340,374 l 34,0 0,34 -34,0 z M 374,374 l 34,0 0,34 -34,0 z M 510,374 l 34,0 0,34 -34,0 z M 544,374 l 34,0 0,34 -34,0 z M 578,374 l 34,0 0,34 -34,0 z M 646,374 l 34,0 0,34 -34,0 z M 714,374 l 34,0 0,34 -34,0 z M 748,374 l 34,0 0,34 -34,0 z M 850,374 l 34,0 0,34 -34,0 z M 918,374 l 34,0 0,34 -34,0 z M 0,408 l 34,0 0,34 -34,0 z M 34,408 l 34,0 0,34 -34,0 z M 68,408 l 34,0 0,34 -34,0 z M 102,408 l 34,0 0,34 -34,0 z M 170,408 l 34,0 0,34 -34,0 z M 204,408 l 34,0 0,34 -34,0 z M 306,408 l 34,0 0,34 -34,0 z M 374,408 l 34,0 0,34 -34,0 z M 646,408 l 34,0 0,34 -34,0 z M 850,408 l 34,0 0,34 -34,0 z M 884,408 l 34,0 0,34 -34,0 z M 0,442 l 34,0 0,34 -34,0 z M 102,442 l 34,0 0,34 -34,0 z M 170,442 l 34,0 0,34 -34,0 z M 272,442 l 34,0 0,34 -34,0 z M 306,442 l 34,0 0,34 -34,0 z M 340,442 l 34,0 0,34 -34,0 z M 408,442 l 34,0 0,34 -34,0 z M 442,442 l 34,0 0,34 -34,0 z M 646,442 l 34,0 0,34 -34,0 z M 680,442 l 34,0 0,34 -34,0 z M 714,442 l 34,0 0,34 -34,0 z M 782,442 l 34,0 0,34 -34,0 z M 816,442 l 34,0 0,34 -34,0 z M 952,442 l 34,0 0,34 -34,0 z M 34,476 l 34,0 0,34 -34,0 z M 102,476 l 34,0 0,34 -34,0 z M 170,476 l 34,0 0,34 -34,0 z M 204,476 l 34,0 0,34 -34,0 z M 272,476 l 34,0 0,34 -34,0 z M 306,476 l 34,0 0,34 -34,0 z M 340,476 l 34,0 0,34 -34,0 z M 442,476 l 34,0 0,34 -34,0 z M 476,476 l 34,0 0,34 -34,0 z M 544,476 l 34,0 0,34 -34,0 z M 612,476 l 34,0 0,34 -34,0 z M 680,476 l 34,0 0,34 -34,0 z M 714,476 l 34,0 0,34 -34,0 z M 850,476 l 34,0 0,34 -34,0 z M 884,476 l 34,0 0,34 -34,0 z M 0,510 l 34,0 0,34 -34,0 z M 68,510 l 34,0 0,34 -34,0 z M 170,510 l 34,0 0,34 -34,0 z M 272,510 l 34,0 0,34 -34,0 z M 340,510 l 34,0 0,34 -34,0 z M 408,510 l 34,0 0,34 -34,0 z M 442,510 l 34,0 0,34 -34,0 z M 510,510 l 34,0 0,34 -34,0 z M 544,510 l 34,0 0,34 -34,0 z M 578,510 l 34,0 0,34 -34,0 z M 714,510 l 34,0 0,34 -34,0 z M 782,510 l 34,0 0,34 -34,0 z M 816,510 l 34,0 0,34 -34,0 z M 918,510 l 34,0 0,34 -34,0 z M 0,544 l 34,0 0,34 -34,0 z M 204,544 l 34,0 0,34 -34,0 z M 238,544 l 34,0 0,34 -34,0 z M 272,544 l 34,0 0,34 -34,0 z M 408,544 l 34,0 0,34 -34,0 z M 476,544 l 34,0 0,34 -34,0 z M 544,544 l 34,0 0,34 -34,0 z M 578,544 l 34,0 0,34 -34,0 z M 612,544 l 34,0 0,34 -34,0 z M 714,544 l 34,0 0,34 -34,0 z M 782,544 l 34,0 0,34 -34,0 z M 850,544 l 34,0 0,34 -34,0 z M 884,544 l 34,0 0,34 -34,0 z M 0,578 l 34,0 0,34 -34,0 z M 34,578 l 34,0 0,34 -34,0 z M 68,578 l 34,0 0,34 -34,0 z M 102,578 l 34,0 0,34 -34,0 z M 136,578 l 34,0 0,34 -34,0 z M 238,578 l 34,0 0,34 -34,0 z M 306,578 l 34,0 0,34 -34,0 z M 612,578 l 34,0 0,34 -34,0 z M 782,578 l 34,0 0,34 -34,0 z M 816,578 l 34,0 0,34 -34,0 z M 884,578 l 34,0 0,34 -34,0 z M 952,578 l 34,0 0,34 -34,0 z M 0,612 l 34,0 0,34 -34,0 z M 136,612 l 34,0 0,34 -34,0 z M 170,612 l 34,0 0,34 -34,0 z M 204,612 l 34,0 0,34 -34,0 z M 238,612 l 34,0 0,34 -34,0 z M 340,612 l 34,0 0,34 -34,0 z M 374,612 l 34,0 0,34 -34,0 z M 408,612 l 34,0 0,34 -34,0 z M 612,612 l 34,0 0,34 -34,0 z M 646,612 l 34,0 0,34 -34,0 z M 714,612 l 34,0 0,34 -34,0 z M 782,612 l 34,0 0,34 -34,0 z M 816,612 l 34,0 0,34 -34,0 z M 884,612 l 34,0 0,34 -34,0 z M 0,646 l 34,0 0,34 -34,0 z M 306,646 l 34,0 0,34 -34,0 z M 340,646 l 34,0 0,34 -34,0 z M 374,646 l 34,0 0,34 -34,0 z M 476,646 l 34,0 0,34 -34,0 z M 510,646 l 34,0 0,34 -34,0 z M 544,646 l 34,0 0,34 -34,0 z M 578,646 l 34,0 0,34 -34,0 z M 646,646 l 34,0 0,34 -34,0 z M 680,646 l 34,0 0,34 -34,0 z M 748,646 l 34,0 0,34 -34,0 z M 782,646 l 34,0 0,34 -34,0 z M 816,646 l 34,0 0,34 -34,0 z M 918,646 l 34,0 0,34 -34,0 z M 0,680 l 34,0 0,34 -34,0 z M 204,680 l 34,0 0,34 -34,0 z M 238,680 l 34,0 0,34 -34,0 z M 306,680 l 34,0 0,34 -34,0 z M 374,680 l 34,0 0,34 -34,0 z M 544,680 l 34,0 0,34 -34,0 z M 680,680 l 34,0 0,34 -34,0 z M 714,680 l 34,0 0,34 -34,0 z M 748,680 l 34,0 0,34 -34,0 z M 782,680 l 34,0 0,34 -34,0 z M 816,680 l 34,0 0,34 -34,0 z M 884,680 l 34,0 0,34 -34,0 z M 918,680 l 34,0 0,34 -34,0 z M 952,680 l 34,0 0,34 -34,0 z M 272,714 l 34,0 0,34 -34,0 z M 306,714 l 34,0 0,34 -34,0 z M 408,714 l 34,0 0,34 -34,0 z M 442,714 l 34,0 0,34 -34,0 z M 476,714 l 34,0 0,34 -34,0 z M 646,714 l 34,0 0,34 -34,0 z M 680,714 l 34,0 0,34 -34,0 z M 816,714 l 34,0 0,34 -34,0 z M 850,714 l 34,0 0,34 -34,0 z M 884,714 l 34,0 0,34 -34,0 z M 918,714 l 34,0 0,34 -34,0 z M 952,714 l 34,0 0,34 -34,0 z M 0,748 l 34,0 0,34 -34,0 z M 34,748 l 34,0 0,34 -34,0 z M 68,748 l 34,0 0,34 -34,0 z M 102,748 l 34,0 0,34 -34,0 z M 136,748 l 34,0 0,34 -34,0 z M 170,748 l 34,0 0,34 -34,0 z M 204,748 l 34,0 0,34 -34,0 z M 272,748 l 34,0 0,34 -34,0 z M 442,748 l 34,0 0,34 -34,0 z M 476,748 l 34,0 0,34 -34,0 z M 544,748 l 34,0 0,34 -34,0 z M 680,748 l 34,0 0,34 -34,0 z M 748,748 l 34,0 0,34 -34,0 z M 816,748 l 34,0 0,34 -34,0 z M 850,748 l 34,0 0,34 -34,0 z M 884,748 l 34,0 0,34 -34,0 z M 0,782 l 34,0 0,34 -34,0 z M 204,782 l 34,0 0,34 -34,0 z M 408,782 l 34,0 0,34 -34,0 z M 442,782 l 34,0 0,34 -34,0 z M 510,782 l 34,0 0,34 -34,0 z M 544,782 l 34,0 0,34 -34,0 z M 578,782 l 34,0 0,34 -34,0 z M 680,782 l 34,0 0,34 -34,0 z M 816,782 l 34,0 0,34 -34,0 z M 0,816 l 34,0 0,34 -34,0 z M 68,816 l 34,0 0,34 -34,0 z M 102,816 l 34,0 0,34 -34,0 z M 136,816 l 34,0 0,34 -34,0 z M 204,816 l 34,0 0,34 -34,0 z M 272,816 l 34,0 0,34 -34,0 z M 306,816 l 34,0 0,34 -34,0 z M 408,816 l 34,0 0,34 -34,0 z M 476,816 l 34,0 0,34 -34,0 z M 510,816 l 34,0 0,34 -34,0 z M 612,816 l 34,0 0,34 -34,0 z M 680,816 l 34,0 0,34 -34,0 z M 714,816 l 34,0 0,34 -34,0 z M 748,816 l 34,0 0,34 -34,0 z M 782,816 l 34,0 0,34 -34,0 z M 816,816 l 34,0 0,34 -34,0 z M 884,816 l 34,0 0,34 -34,0 z M 952,816 l 34,0 0,34 -34,0 z M 0,850 l 34,0 0,34 -34,0 z M 68,850 l 34,0 0,34 -34,0 z M 102,850 l 34,0 0,34 -34,0 z M 136,850 l 34,0 0,34 -34,0 z M 204,850 l 34,0 0,34 -34,0 z M 272,850 l 34,0 0,34 -34,0 z M 340,850 l 34,0 0,34 -34,0 z M 578,850 l 34,0 0,34 -34,0 z M 612,850 l 34,0 0,34 -34,0 z M 646,850 l 34,0 0,34 -34,0 z M 680,850 l 34,0 0,34 -34,0 z M 714,850 l 34,0 0,34 -34,0 z M 850,850 l 34,0 0,34 -34,0 z M 884,850 l 34,0 0,34 -34,0 z M 918,850 l 34,0 0,34 -34,0 z M 0,884 l 34,0 0,34 -34,0 z M 68,884 l 34,0 0,34 -34,0 z M 102,884 l 34,0 0,34 -34,0 z M 136,884 l 34,0 0,34 -34,0 z M 204,884 l 34,0 0,34 -34,0 z M 272,884 l 34,0 0,34 -34,0 z M 306,884 l 34,0 0,34 -34,0 z M 340,884 l 34,0 0,34 -34,0 z M 374,884 l 34,0 0,34 -34,0 z M 408,884 l 34,0 0,34 -34,0 z M 544,884 l 34,0 0,34 -34,0 z M 612,884 l 34,0 0,34 -34,0 z M 714,884 l 34,0 0,34 -34,0 z M 782,884 l 34,0 0,34 -34,0 z M 816,884 l 34,0 0,34 -34,0 z M 850,884 l 34,0 0,34 -34,0 z M 884,884 l 34,0 0,34 -34,0 z M 918,884 l 34,0 0,34 -34,0 z M 0,918 l 34,0 0,34 -34,0 z M 204,918 l 34,0 0,34 -34,0 z M 272,918 l 34,0 0,34 -34,0 z M 340,918 l 34,0 0,34 -34,0 z M 374,918 l 34,0 0,34 -34,0 z M 476,918 l 34,0 0,34 -34,0 z M 510,918 l 34,0 0,34 -34,0 z M 578,918 l 34,0 0,34 -34,0 z M 612,918 l 34,0 0,34 -34,0 z M 714,918 l 34,0 0,34 -34,0 z M 782,918 l 34,0 0,34 -34,0 z M 850,918 l 34,0 0,34 -34,0 z M 918,918 l 34,0 0,34 -34,0 z M 0,952 l 34,0 0,34 -34,0 z M 34,952 l 34,0 0,34 -34,0 z M 68,952 l 34,0 0,34 -34,0 z M 102,952 l 34,0 0,34 -34,0 z M 136,952 l 34,0 0,34 -34,0 z M 170,952 l 34,0 0,34 -34,0 z M 204,952 l 34,0 0,34 -34,0 z M 272,952 l 34,0 0,34 -34,0 z M 340,952 l 34,0 0,34 -34,0 z M 374,952 l 34,0 0,34 -34,0 z M 544,952 l 34,0 0,34 -34,0 z M 578,952 l 34,0 0,34 -34,0 z M 612,952 l 34,0 0,34 -34,0 z M 714,952 l 34,0 0,34 -34,0 z M 748,952 l 34,0 0,34 -34,0 z M 884,952 l 34,0 0,34 -34,0 z " />
	</g>
</svg>
